<svg width="16" height="17" viewBox="0 0 16 17" fill="none" xmlns="http://www.w3.org/2000/svg">
<g clip-path="url(#clip0_541_548)">
<rect width="16" height="16" transform="translate(0 0.25)" fill="white" fill-opacity="0.01"/>
<g clip-path="url(#clip1_541_548)">
<path d="M15.5446 6.80719C15.6379 7.34414 15.6844 7.88819 15.6836 8.43319C15.6836 10.8672 14.8136 12.9252 13.2996 14.3182H13.3016C11.9776 15.5412 10.1576 16.2492 7.99965 16.2492C5.87792 16.2492 3.84309 15.4063 2.34279 13.906C0.842504 12.4057 -0.000350952 10.3709 -0.000350952 8.24919C-0.000350952 6.12745 0.842504 4.09262 2.34279 2.59233C3.84309 1.09204 5.87792 0.249185 7.99965 0.249185C9.98559 0.225927 11.9035 0.972018 13.3516 2.33119L11.0676 4.61519C10.242 3.82816 9.14015 3.39718 7.99965 3.41518C5.91265 3.41518 4.13965 4.82318 3.50765 6.71918C3.17256 7.71269 3.17256 8.78868 3.50765 9.78219H3.51065C4.14565 11.6752 5.91565 13.0832 8.00265 13.0832C9.08065 13.0832 10.0066 12.8072 10.7246 12.3192H10.7216C11.1386 12.043 11.4952 11.6852 11.77 11.2674C12.0448 10.8496 12.2321 10.3804 12.3206 9.88819H7.99965V6.80819H15.5446V6.80719Z" fill="#0D6EFD"/>
</g>
</g>
<defs>
<clipPath id="clip0_541_548">
<rect width="16" height="16" fill="white" transform="translate(0 0.25)"/>
</clipPath>
<clipPath id="clip1_541_548">
<rect width="16" height="16" fill="white" transform="translate(0 0.25)"/>
</clipPath>
</defs>
</svg>
